<svg xmlns="http://www.w3.org/2000/svg" width="80" height="80" fill="none" viewBox="0 0 80 80">
  <path fill="#0D2611" d="M15.93 31.855h15.927v15.927H15.93z"/>
  <path fill="#0D2611" d="M31.848 31.855h15.927v15.927H31.848z"/>
  <path fill="#0D2611" d="M15.93 15.93h15.927v15.927H15.93zM0 0h15.927v15.927H0zm15.93 47.785h15.927v15.927H15.93zM0 63.703h15.927V79.63H0zm63.703-31.848H47.776v15.927h15.927z"/>
  <path fill="#0D2611" d="M47.777 31.855H31.85v15.927h15.927z"/>
  <path fill="#0D2611" d="M63.703 15.93H47.776v15.927h15.927zM79.633 0H63.706v15.927h15.927zm-15.93 47.785H47.776v15.927h15.927zm15.93 15.918H63.706V79.63h15.927z"/>
</svg>
