<svg xmlns="http://www.w3.org/2000/svg" width="264" height="264" fill="none" viewBox="0 0 264 264">
  <path fill="#3FBD52" d="M0 0h263.535v263.54H0z"/>
  <path fill="#D7F4DC" d="M81.481 172.902h33.867v33.865H81.481zm33.871-33.851h33.867v33.865h-33.867z"/>
  <path fill="#D7F4DC" d="M115.352 105.188h33.867v33.865h-33.867zm33.863 67.714h33.867v33.865h-33.867zm33.875-33.851h33.867v33.865H183.09z"/>
  <path fill="#D7F4DC" d="M183.09 105.188h33.867v33.865H183.09z"/>
  <path fill="#D7F4DC" d="M183.09 105.188h33.867v33.865H183.09zM47.617 71.305h33.867v33.865H47.617zm0-33.871h33.867v33.865H47.617zm0 67.754h33.867v33.865H47.617z"/>
  <path fill="#D7F4DC" d="M47.617 139.051h33.867v33.865H47.617zm33.875 33.851h33.867v33.865H81.492zm33.871-33.851h33.867v33.865h-33.867z"/>
  <path fill="#D7F4DC" d="M115.363 105.188h33.867v33.865h-33.867zm33.852 67.714h33.867v33.865h-33.867zm33.883-33.851h33.867v33.865h-33.867z"/>
  <path fill="#D7F4DC" d="M183.098 105.188h33.867v33.865h-33.867z"/>
  <path fill="#8CD998" d="M183.5 37.434h33.867v33.865H183.5z"/>
</svg>
